<mxfile host="drawio-plugin" modified="2022-10-25T22:11:18.983Z" agent="5.0 (Macintosh; Intel Mac OS X 10_15_7) AppleWebKit/537.36 (KHTML, like Gecko) Chrome/98.0.4758.102 Safari/537.36" version="15.5.4" etag="aNWcnATsQpPGxq_YGNXt" type="embed"><diagram id="Dk1gIWFDQ26o_uxenbn6" name="Page-1"><mxGraphModel dx="581" dy="715" grid="1" gridSize="10" guides="1" tooltips="1" connect="1" arrows="1" fold="1" page="1" pageScale="1" pageWidth="850" pageHeight="1100" math="0" shadow="0"><root><mxCell id="0"/><mxCell id="1" parent="0"/><mxCell id="2" value="ScrabbleModel" style="html=1;" vertex="1" parent="1"><mxGeometry x="40" y="60" width="110" height="50" as="geometry"/></mxCell><mxCell id="3" value="" style="html=1;points=[];perimeter=orthogonalPerimeter;" vertex="1" parent="1"><mxGeometry x="90" y="150" width="10" height="360" as="geometry"/></mxCell><mxCell id="4" value="TextController" style="html=1;" vertex="1" parent="1"><mxGeometry x="250" y="60" width="110" height="50" as="geometry"/></mxCell><mxCell id="5" value="Player" style="html=1;" vertex="1" parent="1"><mxGeometry x="435" y="60" width="110" height="50" as="geometry"/></mxCell><mxCell id="6" value="" style="html=1;points=[];perimeter=orthogonalPerimeter;" vertex="1" parent="1"><mxGeometry x="300" y="150" width="10" height="360" as="geometry"/></mxCell><mxCell id="7" value="" style="html=1;points=[];perimeter=orthogonalPerimeter;" vertex="1" parent="1"><mxGeometry x="485" y="150" width="10" height="360" as="geometry"/></mxCell><mxCell id="9" value="" style="endArrow=none;dashed=1;html=1;dashPattern=1 3;strokeWidth=2;rounded=1;entryX=0.5;entryY=1;entryDx=0;entryDy=0;" edge="1" parent="1" source="3" target="2"><mxGeometry width="50" height="50" relative="1" as="geometry"><mxPoint x="190" y="340" as="sourcePoint"/><mxPoint x="240" y="290" as="targetPoint"/><Array as="points"/></mxGeometry></mxCell><mxCell id="11" value="startGame()" style="text;align=center;fontStyle=0;verticalAlign=middle;spacingLeft=3;spacingRight=3;strokeColor=none;rotatable=0;points=[[0,0.5],[1,0.5]];portConstraint=eastwest;" vertex="1" parent="1"><mxGeometry x="150" y="124" width="80" height="26" as="geometry"/></mxCell><mxCell id="13" value="" style="endArrow=classic;html=1;entryX=0.5;entryY=-0.003;entryDx=0;entryDy=0;entryPerimeter=0;rounded=0;" edge="1" parent="1" target="3"><mxGeometry width="50" height="50" relative="1" as="geometry"><mxPoint x="95" y="123" as="sourcePoint"/><mxPoint x="110" y="160" as="targetPoint"/><Array as="points"><mxPoint x="150" y="140"/></Array></mxGeometry></mxCell><mxCell id="14" value="" style="endArrow=classic;html=1;rounded=0;exitX=1.1;exitY=0.036;exitDx=0;exitDy=0;exitPerimeter=0;" edge="1" parent="1" source="3"><mxGeometry width="50" height="50" relative="1" as="geometry"><mxPoint x="120" y="210" as="sourcePoint"/><mxPoint x="101" y="200" as="targetPoint"/><Array as="points"><mxPoint x="160" y="180"/></Array></mxGeometry></mxCell><mxCell id="15" value="initializePlayers()" style="text;align=center;fontStyle=0;verticalAlign=middle;spacingLeft=3;spacingRight=3;strokeColor=none;rotatable=0;points=[[0,0.5],[1,0.5]];portConstraint=eastwest;" vertex="1" parent="1"><mxGeometry x="170" y="170" width="80" height="26" as="geometry"/></mxCell><mxCell id="20" value="" style="endArrow=classic;html=1;rounded=0;entryX=-0.5;entryY=0.278;entryDx=0;entryDy=0;entryPerimeter=0;" edge="1" parent="1"><mxGeometry width="50" height="50" relative="1" as="geometry"><mxPoint x="102" y="251" as="sourcePoint"/><mxPoint x="297" y="251.08000000000004" as="targetPoint"/><Array as="points"><mxPoint x="142" y="251"/></Array></mxGeometry></mxCell><mxCell id="21" value="askForNumPlayers()" style="text;align=center;fontStyle=0;verticalAlign=middle;spacingLeft=3;spacingRight=3;strokeColor=none;rotatable=0;points=[[0,0.5],[1,0.5]];portConstraint=eastwest;" vertex="1" parent="1"><mxGeometry x="152" y="220" width="80" height="26" as="geometry"/></mxCell><mxCell id="23" value="int" style="text;align=center;fontStyle=0;verticalAlign=middle;spacingLeft=3;spacingRight=3;strokeColor=none;rotatable=0;points=[[0,0.5],[1,0.5]];portConstraint=eastwest;" vertex="1" parent="1"><mxGeometry x="152" y="302" width="80" height="26" as="geometry"/></mxCell><mxCell id="24" value="" style="endArrow=classic;html=1;rounded=0;entryX=1.3;entryY=0.561;entryDx=0;entryDy=0;entryPerimeter=0;" edge="1" parent="1"><mxGeometry width="50" height="50" relative="1" as="geometry"><mxPoint x="310" y="261" as="sourcePoint"/><mxPoint x="313" y="292.96000000000004" as="targetPoint"/><Array as="points"><mxPoint x="350" y="277"/></Array></mxGeometry></mxCell><mxCell id="25" value="isValidNum(String)" style="text;align=center;fontStyle=0;verticalAlign=middle;spacingLeft=3;spacingRight=3;strokeColor=none;rotatable=0;points=[[0,0.5],[1,0.5]];portConstraint=eastwest;" vertex="1" parent="1"><mxGeometry x="360" y="260" width="90" height="26" as="geometry"/></mxCell><mxCell id="26" value="" style="endArrow=block;dashed=1;endFill=0;endSize=12;html=1;rounded=0;exitX=-0.4;exitY=0.608;exitDx=0;exitDy=0;exitPerimeter=0;" edge="1" parent="1"><mxGeometry width="160" relative="1" as="geometry"><mxPoint x="299" y="302.88" as="sourcePoint"/><mxPoint x="98" y="304" as="targetPoint"/><Array as="points"><mxPoint x="253" y="304"/></Array></mxGeometry></mxCell><mxCell id="27" value="" style="endArrow=classic;html=1;rounded=0;entryX=-0.5;entryY=0.278;entryDx=0;entryDy=0;entryPerimeter=0;" edge="1" parent="1"><mxGeometry width="50" height="50" relative="1" as="geometry"><mxPoint x="103" y="356" as="sourcePoint"/><mxPoint x="298" y="356.08000000000004" as="targetPoint"/><Array as="points"><mxPoint x="143" y="356"/></Array></mxGeometry></mxCell><mxCell id="28" value="askForPlayerName(int)" style="text;align=center;fontStyle=0;verticalAlign=middle;spacingLeft=3;spacingRight=3;strokeColor=none;rotatable=0;points=[[0,0.5],[1,0.5]];portConstraint=eastwest;" vertex="1" parent="1"><mxGeometry x="153" y="325" width="80" height="26" as="geometry"/></mxCell><mxCell id="29" value="" style="endArrow=classic;html=1;rounded=0;entryX=1.3;entryY=0.561;entryDx=0;entryDy=0;entryPerimeter=0;" edge="1" parent="1"><mxGeometry width="50" height="50" relative="1" as="geometry"><mxPoint x="310" y="361" as="sourcePoint"/><mxPoint x="313" y="392.96000000000004" as="targetPoint"/><Array as="points"><mxPoint x="350" y="377"/></Array></mxGeometry></mxCell><mxCell id="30" value="isValidWord(String)" style="text;align=center;fontStyle=0;verticalAlign=middle;spacingLeft=3;spacingRight=3;strokeColor=none;rotatable=0;points=[[0,0.5],[1,0.5]];portConstraint=eastwest;" vertex="1" parent="1"><mxGeometry x="360" y="360" width="90" height="26" as="geometry"/></mxCell><mxCell id="31" value="" style="endArrow=block;dashed=1;endFill=0;endSize=12;html=1;rounded=0;exitX=-0.4;exitY=0.608;exitDx=0;exitDy=0;exitPerimeter=0;" edge="1" parent="1"><mxGeometry width="160" relative="1" as="geometry"><mxPoint x="300" y="404.88" as="sourcePoint"/><mxPoint x="99" y="406" as="targetPoint"/><Array as="points"><mxPoint x="254" y="406"/></Array></mxGeometry></mxCell><mxCell id="32" value="String" style="text;align=center;fontStyle=0;verticalAlign=middle;spacingLeft=3;spacingRight=3;strokeColor=none;rotatable=0;points=[[0,0.5],[1,0.5]];portConstraint=eastwest;" vertex="1" parent="1"><mxGeometry x="153" y="404" width="80" height="26" as="geometry"/></mxCell><mxCell id="34" value="" style="endArrow=classic;html=1;rounded=0;" edge="1" parent="1" target="7"><mxGeometry width="50" height="50" relative="1" as="geometry"><mxPoint x="103" y="480" as="sourcePoint"/><mxPoint x="153" y="430" as="targetPoint"/></mxGeometry></mxCell><mxCell id="35" value="Player (String, Model)" style="text;align=center;fontStyle=0;verticalAlign=middle;spacingLeft=3;spacingRight=3;strokeColor=none;rotatable=0;points=[[0,0.5],[1,0.5]];portConstraint=eastwest;" vertex="1" parent="1"><mxGeometry x="170" y="480" width="80" height="26" as="geometry"/></mxCell><mxCell id="36" value="" style="endArrow=none;dashed=1;html=1;dashPattern=1 3;strokeWidth=2;rounded=1;entryX=0.5;entryY=1;entryDx=0;entryDy=0;" edge="1" parent="1"><mxGeometry width="50" height="50" relative="1" as="geometry"><mxPoint x="304.76" y="150" as="sourcePoint"/><mxPoint x="304.76" y="110" as="targetPoint"/><Array as="points"/></mxGeometry></mxCell><mxCell id="37" value="" style="endArrow=none;dashed=1;html=1;dashPattern=1 3;strokeWidth=2;rounded=1;entryX=0.5;entryY=1;entryDx=0;entryDy=0;" edge="1" parent="1"><mxGeometry width="50" height="50" relative="1" as="geometry"><mxPoint x="490" y="150" as="sourcePoint"/><mxPoint x="490" y="110" as="targetPoint"/><Array as="points"/></mxGeometry></mxCell></root></mxGraphModel></diagram></mxfile>